<?xml version="1.0" standalone="no"?>
<!DOCTYPE svg PUBLIC "-//W3C//DTD SVG 20010904//EN"
 "http://www.w3.org/TR/2001/REC-SVG-20010904/DTD/svg10.dtd">
<svg version="1.0" xmlns="http://www.w3.org/2000/svg"
 width="183.000000pt" height="148.000000pt" viewBox="0 0 183.000000 148.000000"
 preserveAspectRatio="xMidYMid meet">

<g transform="translate(0.000000,148.000000) scale(0.100000,-0.100000)"
fill="#000000" stroke="none">
<path d="M1815 1030 c3 -5 8 -10 11 -10 2 0 4 5 4 10 0 6 -5 10 -11 10 -5 0
-7 -4 -4 -10z"/>
<path d="M1539 968 c-1 -7 -1 -19 0 -26 2 -9 -6 -11 -25 -6 -23 6 -26 4 -21
-10 6 -14 3 -16 -16 -9 -26 9 -71 8 -109 -2 -19 -5 -32 -2 -43 9 -18 18 -41
21 -50 7 -3 -5 -21 -7 -40 -4 -26 4 -36 2 -41 -10 -3 -9 -11 -14 -18 -11 -7 3
-22 -4 -35 -15 l-22 -19 21 -7 c12 -4 24 -4 27 -1 4 3 12 1 19 -5 10 -9 15 -7
20 5 3 9 13 16 21 16 9 0 13 -6 9 -15 -3 -9 0 -15 9 -15 8 0 15 -9 15 -19 0
-11 10 -28 23 -38 12 -10 34 -42 49 -70 28 -56 23 -73 -8 -26 l-17 28 -9 -27
c-7 -20 -5 -33 5 -49 9 -12 13 -29 11 -38 -3 -9 1 -6 7 7 17 31 35 22 31 -16
-2 -22 1 -32 10 -32 11 0 10 -2 -1 -9 -10 -6 -10 -13 -2 -28 5 -11 8 -23 5
-26 -3 -3 6 -30 21 -60 18 -39 35 -60 55 -69 17 -7 30 -17 30 -21 0 -5 9 -5
20 -2 14 4 20 2 20 -8 0 -8 7 -20 16 -28 14 -11 14 -13 -1 -21 -10 -6 -14 -17
-10 -29 4 -12 1 -19 -7 -20 -7 -1 -20 -2 -28 -3 -8 0 -16 -9 -18 -18 -3 -16 3
-17 60 -12 35 3 74 6 88 7 22 2 25 6 23 38 -2 30 2 38 19 43 12 3 20 8 17 10
-3 3 -19 2 -36 -3 -69 -20 -112 11 -91 67 12 31 2 51 -32 64 -9 3 -17 20 -18
39 -1 19 -11 46 -22 61 -11 15 -20 39 -20 54 0 15 -4 41 -9 58 -30 97 -43 156
-38 169 3 8 0 20 -6 26 -6 6 -8 13 -4 17 10 10 27 -6 27 -25 0 -10 7 -24 15
-31 8 -7 15 -22 15 -34 0 -27 9 -38 43 -55 15 -8 27 -20 27 -26 0 -7 7 -18 15
-25 8 -7 20 -31 27 -54 l11 -41 7 30 c4 17 13 40 20 52 11 17 12 31 4 60 -5
21 -6 60 -2 87 3 26 3 56 -2 65 -4 9 -16 35 -26 59 -18 45 -33 62 -35 40z m41
-88 c0 -5 -7 -10 -15 -10 -8 0 -15 5 -15 10 0 6 7 10 15 10 8 0 15 -4 15 -10z
m-220 -20 c0 -5 -2 -10 -4 -10 -3 0 -8 5 -11 10 -3 6 -1 10 4 10 6 0 11 -4 11
-10z m159 -94 c17 -20 -5 -31 -24 -12 -8 8 -15 17 -15 20 0 12 28 6 39 -8z
m-129 -25 c13 -25 13 -64 0 -56 -5 3 -10 14 -10 25 0 10 -7 21 -16 24 -8 3
-12 10 -9 16 10 16 23 12 35 -9z m24 -96 c3 -8 1 -15 -4 -15 -6 0 -10 7 -10
15 0 8 2 15 4 15 2 0 6 -7 10 -15z m14 -62 c-5 -25 -28 -28 -28 -4 0 12 6 21
16 21 9 0 14 -7 12 -17z m10 -46 c6 -6 14 -26 17 -42 l8 -30 -20 21 c-24 24
-39 64 -25 64 5 0 14 -6 20 -13z m-5 -79 c10 -26 -19 -23 -37 4 -9 12 -16 36
-16 52 l0 29 23 -34 c13 -19 26 -42 30 -51z m28 -44 c12 -14 11 -16 -5 -13
-11 2 -21 10 -24 17 -5 17 13 15 29 -4z m135 -145 c12 -19 -13 -33 -30 -17 -8
9 -12 18 -9 22 10 10 31 7 39 -5z"/>
<path d="M1657 973 c-12 -12 -7 -22 8 -17 8 4 15 10 15 15 0 11 -14 12 -23 2z"/>
<path d="M1088 863 c7 -3 16 -2 19 1 4 3 -2 6 -13 5 -11 0 -14 -3 -6 -6z"/>
<path d="M1018 853 c6 -2 18 -2 25 0 6 3 1 5 -13 5 -14 0 -19 -2 -12 -5z"/>
<path d="M878 843 c7 -3 16 -2 19 1 4 3 -2 6 -13 5 -11 0 -14 -3 -6 -6z"/>
<path d="M945 840 c3 -5 8 -10 11 -10 2 0 4 5 4 10 0 6 -5 10 -11 10 -5 0 -7
-4 -4 -10z"/>
<path d="M1680 835 c0 -3 6 -14 12 -25 10 -16 10 -24 0 -40 -6 -11 -12 -44
-12 -75 0 -51 -2 -55 -22 -52 -22 2 -23 0 -19 -72 2 -56 8 -78 22 -92 11 -11
25 -17 32 -13 7 4 2 -4 -10 -16 -21 -22 -23 -23 -41 -7 -26 23 -31 21 -29 -10
4 -52 65 -90 76 -48 3 11 11 28 17 38 10 18 12 18 50 -3 21 -12 36 -19 31 -14
-4 4 5 16 20 27 l28 19 -30 -7 c-24 -5 -28 -4 -17 6 18 19 15 40 -4 32 -14 -5
-16 -1 -12 25 2 17 0 33 -5 35 -5 1 -9 33 -8 70 0 39 -5 77 -12 90 -7 12 -12
34 -11 50 0 15 -5 32 -12 38 -8 6 -14 20 -14 30 0 11 -7 19 -15 19 -8 0 -15
-2 -15 -5z m60 -226 c0 -5 -4 -9 -10 -9 -5 0 -10 7 -10 16 0 8 5 12 10 9 6 -3
10 -10 10 -16z m-37 -85 c-3 -12 -43 -18 -43 -6 0 5 3 11 6 14 8 9 39 2 37 -8z
m67 -63 c0 -12 -20 -25 -27 -18 -7 7 6 27 18 27 5 0 9 -4 9 -9z"/>
<path d="M22 817 c-24 -11 -24 -13 -19 -126 3 -64 6 -117 6 -118 1 -2 8 -3 16
-3 8 0 15 -9 15 -20 0 -13 -7 -20 -20 -20 -11 0 -20 -4 -20 -9 0 -13 25 -20
49 -14 12 3 21 1 21 -6 0 -6 -7 -11 -15 -11 -8 0 -19 -9 -25 -20 -6 -11 -15
-18 -21 -15 -5 4 -9 -8 -9 -25 0 -19 5 -30 13 -29 6 1 19 -1 27 -4 8 -3 24 -7
34 -9 11 -2 21 -9 24 -17 3 -10 -1 -12 -17 -8 -11 3 -21 2 -21 -3 0 -14 51
-21 65 -10 9 8 15 8 20 0 11 -17 25 -11 25 10 0 19 4 20 38 14 20 -3 41 -10
46 -15 5 -5 15 -4 23 3 10 8 17 7 27 -7 10 -14 20 -16 50 -11 29 6 43 3 57
-10 12 -11 26 -14 45 -10 16 4 30 3 34 -4 7 -11 11 -11 85 -6 22 1 45 -2 52
-6 8 -6 15 -2 22 11 9 16 16 18 34 12 14 -6 29 -3 44 6 24 16 22 36 -2 26 -10
-3 -15 1 -15 12 0 11 5 15 14 12 9 -4 16 3 20 16 7 29 -3 36 -20 13 -14 -19
-14 -19 -14 3 0 16 -4 21 -15 17 -8 -3 -37 -8 -64 -12 -40 -5 -54 -3 -77 14
-16 12 -42 24 -59 27 -27 6 -28 5 -12 -8 16 -14 16 -15 -5 -21 -13 -3 -40 -6
-60 -6 -21 0 -38 -5 -38 -11 0 -7 16 -8 45 -3 36 5 45 3 45 -8 0 -22 -41 -38
-62 -24 -13 8 -23 8 -38 -2 -19 -11 -21 -11 -18 5 4 23 -34 30 -52 8 -7 -8
-17 -15 -23 -15 -7 0 -7 4 1 12 18 18 15 28 -9 28 -11 0 -18 -4 -15 -9 3 -5 0
-11 -8 -14 -18 -7 -95 4 -102 14 -3 5 -20 9 -37 9 -18 0 -37 4 -44 8 -18 11
-5 49 18 55 16 4 18 3 9 -9 -10 -11 0 -13 66 -10 44 3 84 0 90 -5 8 -6 17 -5
25 4 19 18 52 30 43 16 -4 -8 1 -9 17 -3 31 10 53 12 117 13 66 1 61 21 -6 21
-58 0 -86 14 -48 24 14 3 26 11 26 16 0 6 4 10 10 10 5 0 7 -6 4 -13 -3 -9 7
-12 35 -12 43 0 46 15 3 16 l-27 0 25 11 25 10 -29 9 c-19 5 -35 4 -43 -3 -7
-5 -25 -8 -39 -5 -15 2 -41 1 -58 -4 -47 -13 -118 -17 -142 -8 -17 6 -20 14
-16 36 8 44 21 55 58 48 35 -6 48 4 38 29 -4 11 -19 16 -46 16 -23 0 -37 -4
-33 -10 10 -16 -25 -12 -42 5 -8 9 -13 22 -10 29 3 7 0 19 -6 25 -9 9 -8 14 3
22 13 8 12 11 -4 24 -14 10 -15 15 -6 15 9 0 10 3 5 9 -16 14 -79 19 -103 8z
m60 -49 c21 -17 30 -49 18 -67 -7 -12 -11 -10 -20 10 -6 14 -21 29 -33 34 -30
14 -33 35 -5 35 13 0 31 -6 40 -12z m-52 -49 c0 -5 -4 -9 -10 -9 -5 0 -10 7
-10 16 0 8 5 12 10 9 6 -3 10 -10 10 -16z m104 -92 c31 -46 31 -47 6 -47 -11
0 -20 5 -20 10 0 6 -8 10 -18 10 -26 0 -34 11 -21 27 6 7 8 13 4 13 -4 0 -2 7
5 15 7 9 14 14 16 12 2 -1 14 -19 28 -40z m-84 2 c0 -10 -6 -19 -14 -19 -8 0
-13 10 -13 24 0 17 4 23 13 19 8 -3 14 -14 14 -24z m30 -79 c0 -5 -7 -7 -15
-4 -8 4 -15 8 -15 10 0 2 7 4 15 4 8 0 15 -4 15 -10z m82 -7 c10 -9 18 -23 18
-31 0 -9 6 -12 16 -8 9 3 27 6 40 6 15 0 24 6 24 15 0 8 5 15 10 15 6 0 10 -4
10 -10 0 -19 28 -10 33 10 5 21 31 27 42 11 3 -5 0 -21 -6 -35 -9 -19 -16 -23
-33 -17 -12 5 -49 2 -85 -5 -64 -13 -111 -10 -111 7 0 5 4 9 10 9 5 0 7 7 4
15 -4 8 -12 15 -20 15 -8 0 -14 5 -14 10 0 16 42 12 62 -7z m325 -178 c0 -8
-4 -15 -9 -15 -10 0 -11 14 -1 23 9 10 10 9 10 -8z"/>
<path d="M895 789 c-22 -21 -34 -39 -27 -39 6 0 12 -9 12 -20 0 -11 5 -20 11
-20 7 0 9 10 5 25 -4 14 -2 26 4 27 29 4 35 1 40 -22 7 -28 29 -33 40 -10 4 8
12 25 19 38 11 21 9 22 -23 22 -26 0 -35 5 -38 19 -3 17 -9 14 -43 -20z"/>
<path d="M1132 810 c-23 -22 -29 -40 -12 -40 6 0 10 7 10 15 0 19 17 19 28 0
6 -13 14 -13 40 -4 38 13 42 29 8 29 -14 0 -28 5 -31 10 -9 15 -19 12 -43 -10z"/>
<path d="M1027 799 c-3 -13 -1 -26 5 -30 13 -8 15 -55 5 -86 -8 -21 -5 -23 25
-23 31 1 32 1 14 15 -20 15 -20 15 0 30 10 8 24 15 31 15 6 0 15 5 19 11 5 8
-3 10 -25 7 -30 -4 -31 -4 -16 18 20 30 19 34 -6 34 -12 0 -27 7 -34 16 -11
15 -13 14 -18 -7z"/>
<path d="M734 786 c-11 -8 -29 -14 -39 -13 -12 1 -21 -6 -25 -22 -4 -19 -16
-27 -55 -36 -28 -7 -62 -13 -76 -13 -15 0 -49 -5 -77 -13 -47 -12 -53 -11 -72
6 -17 16 -23 17 -30 6 -5 -10 -18 -12 -43 -7 -32 6 -34 5 -30 -18 4 -21 8 -23
39 -16 33 8 35 6 49 -26 8 -19 19 -34 24 -34 14 0 14 16 0 41 -9 17 -8 20 8
18 10 -2 27 2 38 8 29 15 90 23 106 13 8 -6 19 -4 29 5 9 8 34 17 57 21 37 6
42 4 48 -17 9 -28 23 -39 49 -39 14 0 16 3 7 14 -9 11 -1 17 39 34 27 12 50
25 50 31 0 6 -14 4 -35 -5 -51 -21 -82 -18 -88 8 -6 22 15 47 41 48 6 0 12 5
12 10 0 13 -2 13 -26 -4z"/>
<path d="M785 680 c-3 -5 1 -10 10 -10 9 0 13 5 10 10 -3 6 -8 10 -10 10 -2 0
-7 -4 -10 -10z"/>
<path d="M525 660 c-3 -4 2 -11 11 -14 22 -8 34 -7 34 3 0 12 -39 21 -45 11z"/>
<path d="M930 660 c19 -12 67 -13 74 -1 3 5 -16 9 -42 9 -33 1 -43 -1 -32 -8z"/>
<path d="M1475 661 c-3 -5 -1 -12 5 -16 5 -3 10 -14 10 -23 0 -9 9 -28 20 -42
11 -14 20 -37 20 -51 0 -15 6 -32 14 -38 21 -17 33 25 14 47 -8 9 -27 43 -42
75 -29 60 -31 63 -41 48z"/>
<path d="M1035 638 c-11 -7 -35 -11 -53 -9 -24 1 -33 -2 -30 -11 3 -7 16 -13
29 -13 13 0 27 -4 31 -10 4 -6 8 -2 8 8 0 20 49 24 67 6 20 -20 36 1 17 22
-19 22 -40 24 -69 7z"/>
<path d="M320 630 c0 -5 7 -10 16 -10 8 0 12 5 9 10 -3 6 -10 10 -16 10 -5 0
-9 -4 -9 -10z"/>
<path d="M256 623 c-11 -11 -6 -23 9 -23 8 0 15 4 15 9 0 13 -16 22 -24 14z"/>
<path d="M736 590 c4 -16 3 -30 -2 -30 -15 1 -44 26 -44 39 0 13 -2 13 -25 5
-9 -4 -13 -10 -8 -13 4 -3 16 -21 26 -39 16 -28 16 -33 3 -37 -9 -3 -23 -7
-32 -10 -27 -9 -10 -16 22 -9 17 3 34 15 40 27 6 15 16 21 29 18 42 -8 50 -6
50 14 0 11 4 26 9 34 7 10 5 13 -5 9 -8 -3 -22 -9 -31 -13 -13 -5 -18 -2 -18
8 0 9 -4 19 -10 22 -6 4 -7 -6 -4 -25z"/>
<path d="M510 581 c0 -17 34 -22 49 -6 14 13 12 15 -17 15 -18 0 -32 -4 -32
-9z"/>
<path d="M1034 558 c-3 -5 3 -12 15 -15 14 -3 21 -13 21 -29 0 -13 1 -27 3
-31 1 -3 -11 -11 -28 -16 -16 -6 -33 -14 -36 -20 -8 -11 -49 0 -49 14 0 5 -7
9 -15 9 -8 0 -15 5 -15 10 0 13 -27 13 -35 -1 -4 -6 2 -13 14 -16 12 -3 21 -9
21 -14 0 -16 -32 -23 -40 -9 -7 11 -16 10 -48 -5 -37 -18 -49 -44 -15 -30 13
4 13 3 4 -8 -9 -11 -8 -17 3 -26 11 -9 15 -9 19 1 3 9 9 8 19 -6 14 -18 17
-18 38 -3 l22 16 -36 6 c-20 4 -36 11 -36 16 0 11 -7 10 75 15 64 4 72 2 97
-21 33 -31 42 -31 60 -3 l15 23 17 -33 c14 -27 20 -31 36 -22 10 6 22 15 25
21 5 7 15 5 31 -6 14 -9 28 -14 33 -11 16 10 4 66 -19 86 -24 21 -65 27 -75
10 -9 -15 -25 -12 -25 4 0 7 -9 16 -21 19 -12 3 -18 10 -15 15 10 17 -11 59
-33 65 -12 3 -24 1 -27 -5z m187 -143 c0 -5 -9 -11 -21 -13 -20 -3 -27 8 -13
22 10 9 34 3 34 -9z"/>
<path d="M543 532 c19 -21 13 -32 -17 -32 -14 0 -17 -3 -9 -11 16 -16 113 0
113 18 0 11 -7 14 -21 10 -27 -7 -49 1 -49 19 0 8 -7 14 -17 14 -15 0 -15 -1
0 -18z"/>
<path d="M890 509 c0 -5 5 -7 10 -4 6 3 10 8 10 11 0 2 -4 4 -10 4 -5 0 -10
-5 -10 -11z"/>
<path d="M393 461 c-45 -8 -69 -21 -37 -21 38 0 94 13 94 21 0 5 -3 8 -7 8 -5
-1 -27 -5 -50 -8z"/>
<path d="M782 430 c-23 -22 -29 -40 -12 -40 6 0 14 8 17 18 4 9 11 20 17 24 6
4 8 9 5 12 -3 3 -15 -3 -27 -14z"/>
<path d="M1275 430 c3 -5 8 -10 11 -10 2 0 4 5 4 10 0 6 -5 10 -11 10 -5 0 -7
-4 -4 -10z"/>
<path d="M1270 400 c0 -5 5 -10 10 -10 6 0 10 5 10 10 0 6 -4 10 -10 10 -5 0
-10 -4 -10 -10z"/>
<path d="M0 376 c0 -2 9 -6 20 -9 11 -3 18 -1 14 4 -5 9 -34 13 -34 5z"/>
<path d="M770 355 c0 -9 6 -12 15 -9 8 4 15 10 15 15 0 5 -7 9 -15 9 -8 0 -15
-7 -15 -15z"/>
<path d="M1708 333 c-10 -2 -18 -11 -18 -19 0 -18 14 -18 30 0 6 8 17 13 25
10 7 -3 16 -1 20 5 6 11 -23 13 -57 4z"/>
<path d="M978 323 c7 -3 16 -2 19 1 4 3 -2 6 -13 5 -11 0 -14 -3 -6 -6z"/>
<path d="M335 311 c-17 -4 -25 -9 -19 -13 6 -4 27 -3 47 3 62 17 40 25 -28 10z"/>
<path d="M1270 300 c0 -6 7 -10 15 -10 8 0 15 2 15 4 0 2 -7 6 -15 10 -8 3
-15 1 -15 -4z"/>
<path d="M1051 286 c-7 -8 -21 -12 -31 -9 -11 3 -20 0 -20 -6 0 -6 9 -11 20
-11 31 0 35 1 33 11 -2 5 4 9 12 9 8 0 15 5 15 10 0 14 -16 12 -29 -4z"/>
<path d="M1310 289 c0 -5 4 -8 9 -4 5 3 12 1 16 -4 7 -12 57 -7 82 8 14 8 4
10 -44 11 -38 0 -63 -4 -63 -11z"/>
<path d="M549 286 c-3 -3 -24 -6 -47 -7 -23 -2 -42 -7 -42 -12 0 -6 19 -7 45
-4 43 6 44 6 33 -13 -7 -11 -20 -21 -28 -21 -8 -1 -1 -4 15 -8 29 -7 49 4 39
21 -3 4 7 8 22 8 l27 0 -23 20 c-23 20 -33 24 -41 16z"/>
<path d="M753 282 c-7 -4 -14 -19 -15 -32 -4 -30 25 -39 48 -15 12 11 20 13
29 5 15 -13 65 3 65 21 0 7 -7 8 -17 4 -32 -12 -49 -13 -64 -4 -10 6 -10 9 -1
9 6 0 12 5 12 10 0 12 -40 13 -57 2z"/>
<path d="M946 274 c-6 -16 20 -64 35 -64 14 0 10 16 -7 31 -8 7 -13 21 -11 31
6 22 -8 24 -17 2z"/>
<path d="M1675 270 c-3 -11 -11 -20 -16 -20 -6 0 -8 -4 -5 -9 4 -5 16 -4 30 2
13 7 22 15 20 19 -3 5 0 8 6 8 6 0 8 5 5 10 -10 17 -33 11 -40 -10z"/>
<path d="M648 267 c-30 -12 -37 -27 -13 -27 9 0 12 -6 9 -15 -7 -16 17 -19 50
-6 14 5 16 10 8 15 -7 4 -12 16 -12 27 0 21 -3 22 -42 6z"/>
<path d="M1133 273 c-25 -9 -14 -30 12 -25 14 2 24 9 22 15 -4 13 -18 17 -34
10z"/>
<path d="M1355 257 c-10 -24 1 -33 47 -40 30 -4 37 -2 41 14 4 14 -1 21 -19
25 -13 3 -30 4 -38 1 -8 -3 -17 -1 -19 6 -3 7 -7 5 -12 -6z"/>
<path d="M580 210 c0 -11 5 -20 10 -20 6 0 10 9 10 20 0 11 -4 20 -10 20 -5 0
-10 -9 -10 -20z"/>
<path d="M906 222 c-3 -6 2 -13 12 -17 15 -6 15 -8 -5 -25 -28 -22 -28 -25 -3
-27 11 -1 18 2 15 8 -4 5 1 9 9 9 9 0 16 4 16 8 0 16 -38 53 -44 44z"/>
<path d="M1051 214 c14 -17 62 -19 57 -3 -2 7 -18 13 -36 14 -27 2 -31 0 -21
-11z"/>
<path d="M1228 223 c7 -3 16 -2 19 1 4 3 -2 6 -13 5 -11 0 -14 -3 -6 -6z"/>
<path d="M1712 221 c-24 -15 10 -19 38 -4 l25 13 -25 0 c-14 0 -31 -4 -38 -9z"/>
<path d="M415 200 c-3 -5 1 -10 10 -10 9 0 13 5 10 10 -3 6 -8 10 -10 10 -2 0
-7 -4 -10 -10z"/>
<path d="M1360 190 c-15 -9 -5 -16 42 -24 36 -7 59 6 37 20 -17 10 -65 13 -79
4z"/>
<path d="M1550 196 c0 -2 7 -6 15 -10 8 -3 15 -1 15 4 0 6 -7 10 -15 10 -8 0
-15 -2 -15 -4z"/>
<path d="M1745 193 c-11 -3 -23 -10 -27 -16 -4 -6 -17 -12 -29 -12 -25 0 -36
-16 -44 -65 -4 -28 -13 -40 -45 -58 -22 -13 -38 -27 -35 -32 3 -5 39 -9 81 -9
74 0 75 0 81 29 8 41 36 63 73 58 29 -4 30 -4 30 36 -1 33 -3 37 -11 24 -13
-23 -65 -24 -86 -2 -14 13 -14 17 -2 25 8 5 19 9 26 9 6 0 15 5 18 10 6 10 3
11 -30 3z m-15 -78 c0 -8 -2 -15 -4 -15 -2 0 -6 7 -10 15 -3 8 -1 15 4 15 6 0
10 -7 10 -15z m-74 -72 c-10 -10 -19 5 -10 18 6 11 8 11 12 0 2 -7 1 -15 -2
-18z m44 -18 c0 -10 -10 -15 -26 -15 -22 0 -25 2 -14 15 7 8 19 15 26 15 8 0
14 -7 14 -15z"/>
<path d="M1750 160 c0 -5 11 -10 25 -10 14 0 25 5 25 10 0 6 -11 10 -25 10
-14 0 -25 -4 -25 -10z"/>
<path d="M1115 150 c4 -6 1 -17 -5 -25 -7 -8 -9 -15 -6 -15 4 0 2 -9 -4 -19
-5 -11 -12 -36 -15 -55 l-4 -36 99 0 c55 0 99 3 98 8 0 4 3 16 7 26 11 26 -28
100 -61 115 -32 14 -118 15 -109 1z"/>
<path d="M940 135 c0 -9 -9 -19 -19 -22 -23 -6 -33 -26 -25 -48 4 -10 13 -13
25 -10 25 8 26 -20 2 -34 -10 -5 -14 -13 -10 -17 5 -5 11 -3 15 3 5 8 13 9 22
3 8 -6 40 -9 70 -9 30 0 49 3 43 6 -15 6 -17 43 -3 43 6 0 10 9 10 19 0 11 4
22 9 25 5 3 7 15 4 26 -4 16 -13 21 -42 20 -20 0 -51 2 -68 6 -27 5 -33 3 -33
-11z m135 -33 c-3 -3 -11 0 -18 7 -9 10 -8 11 6 5 10 -3 15 -9 12 -12z"/>
<path d="M190 125 c0 -8 4 -15 9 -15 5 0 14 7 21 15 10 13 9 15 -9 15 -12 0
-21 -6 -21 -15z"/>
<path d="M1325 123 c-2 -7 2 -13 9 -13 7 0 19 -7 26 -15 11 -13 8 -19 -14 -40
-37 -34 -34 -55 7 -54 17 1 24 3 15 6 -10 2 -18 11 -18 20 0 9 6 13 14 10 8
-3 20 1 28 10 11 14 13 13 19 -8 7 -26 8 -25 31 51 l14 45 -63 0 c-41 0 -64
-4 -68 -12z"/>
<path d="M850 119 c0 -5 5 -7 10 -4 6 3 10 8 10 11 0 2 -4 4 -10 4 -5 0 -10
-5 -10 -11z"/>
<path d="M1547 97 c-9 -11 -17 -26 -17 -32 0 -5 -4 -3 -10 5 -5 8 -12 11 -17
7 -4 -4 -2 -17 5 -27 11 -18 10 -20 -9 -20 -18 0 -19 -2 -9 -15 15 -18 30 -19
30 -2 0 14 35 47 50 47 8 0 5 44 -4 57 -1 1 -9 -8 -19 -20z"/>
<path d="M150 91 c0 -12 5 -21 10 -21 6 0 10 6 10 14 0 8 -4 18 -10 21 -5 3
-10 -3 -10 -14z"/>
<path d="M750 86 c0 -9 5 -16 10 -16 6 0 10 4 10 9 0 6 -4 13 -10 16 -5 3 -10
-1 -10 -9z"/>
<path d="M0 69 c0 -5 5 -7 10 -4 5 3 10 8 10 11 0 2 -4 4 -10 4 -5 0 -10 -5
-10 -11z"/>
<path d="M1767 64 c-4 -4 -7 -20 -7 -36 0 -25 3 -28 35 -28 30 0 35 3 35 24 0
14 -7 26 -17 30 -10 3 -23 8 -29 11 -5 3 -13 2 -17 -1z"/>
<path d="M862 43 c2 -10 10 -18 18 -18 22 0 18 29 -3 33 -14 3 -18 -1 -15 -15z"/>
<path d="M584 24 c3 -9 6 -18 6 -20 0 -2 7 -4 15 -4 19 0 19 7 1 26 -19 19
-30 18 -22 -2z"/>
<path d="M17 24 c-17 -18 -3 -24 53 -24 33 0 60 4 60 10 0 6 -18 10 -39 10
-22 0 -46 2 -53 5 -8 3 -17 2 -21 -1z"/>
</g>
</svg>
